<svg width="24" height="25" viewBox="0 0 24 25" fill="none" xmlns="http://www.w3.org/2000/svg">
<path d="M19 4.43973H5C4.20435 4.43973 3.44129 4.7558 2.87868 5.31841C2.31607 5.88102 2 6.64408 2 7.43973V17.4397C2 18.2354 2.31607 18.9984 2.87868 19.561C3.44129 20.1237 4.20435 20.4397 5 20.4397H19C19.7956 20.4397 20.5587 20.1237 21.1213 19.561C21.6839 18.9984 22 18.2354 22 17.4397V7.43973C22 6.64408 21.6839 5.88102 21.1213 5.31841C20.5587 4.7558 19.7956 4.43973 19 4.43973V4.43973ZM5 6.43973H19C19.2652 6.43973 19.5196 6.54508 19.7071 6.73262C19.8946 6.92016 20 7.17451 20 7.43973L12 12.3197L4 7.43973C4 7.17451 4.10536 6.92016 4.29289 6.73262C4.48043 6.54508 4.73478 6.43973 5 6.43973V6.43973ZM20 17.4397C20 17.7049 19.8946 17.9593 19.7071 18.1468C19.5196 18.3344 19.2652 18.4397 19 18.4397H5C4.73478 18.4397 4.48043 18.3344 4.29289 18.1468C4.10536 17.9593 4 17.7049 4 17.4397V9.71973L11.48 14.2897C11.632 14.3775 11.8045 14.4237 11.98 14.4237C12.1555 14.4237 12.328 14.3775 12.48 14.2897L20 9.71973V17.4397Z" fill="#AC8856"/>
</svg>
