<svg width="24" height="25" viewBox="0 0 24 25" fill="none" xmlns="http://www.w3.org/2000/svg">
<path d="M20.46 10.0697C20.3196 8.60864 19.8032 7.20881 18.9612 6.00655C18.1191 4.80428 16.9801 3.84056 15.655 3.20922C14.3299 2.57788 12.8639 2.30045 11.3997 2.40393C9.93555 2.50741 8.52314 2.98829 7.3 3.79973C6.2492 4.50237 5.36706 5.42903 4.71695 6.51312C4.06684 7.59721 3.6649 8.81183 3.54 10.0697C3.41749 11.3194 3.57468 12.5806 4.00017 13.762C4.42567 14.9434 5.1088 16.0152 6 16.8997L11.3 22.2097C11.393 22.3035 11.5036 22.3779 11.6254 22.4286C11.7473 22.4794 11.878 22.5055 12.01 22.5055C12.142 22.5055 12.2727 22.4794 12.3946 22.4286C12.5164 22.3779 12.627 22.3035 12.72 22.2097L18 16.8997C18.8912 16.0152 19.5743 14.9434 19.9998 13.762C20.4253 12.5806 20.5825 11.3194 20.46 10.0697V10.0697ZM16.6 15.4897L12 20.0897L7.4 15.4897C6.72209 14.8118 6.20281 13.9921 5.87947 13.0895C5.55614 12.1869 5.43679 11.2239 5.53 10.2697C5.62382 9.30083 5.93177 8.36489 6.43157 7.52957C6.93138 6.69425 7.61056 5.98043 8.42 5.43973C9.48095 4.73496 10.7263 4.35902 12 4.35902C13.2737 4.35902 14.5191 4.73496 15.58 5.43973C16.387 5.97834 17.0647 6.68901 17.5644 7.52067C18.064 8.35232 18.3733 9.28433 18.47 10.2497C18.5663 11.2072 18.4484 12.174 18.125 13.0803C17.8016 13.9865 17.2807 14.8096 16.6 15.4897V15.4897ZM12 6.43973C11.11 6.43973 10.24 6.70365 9.49994 7.19811C8.75992 7.69258 8.18314 8.39538 7.84255 9.21765C7.50195 10.0399 7.41284 10.9447 7.58647 11.8176C7.7601 12.6905 8.18869 13.4924 8.81802 14.1217C9.44736 14.751 10.2492 15.1796 11.1221 15.3533C11.995 15.5269 12.8998 15.4378 13.7221 15.0972C14.5443 14.7566 15.2471 14.1798 15.7416 13.4398C16.2361 12.6998 16.5 11.8297 16.5 10.9397C16.4974 9.74707 16.0224 8.60401 15.1791 7.76066C14.3357 6.91732 13.1927 6.44237 12 6.43973V6.43973ZM12 13.4397C11.5055 13.4397 11.0222 13.2931 10.6111 13.0184C10.2 12.7437 9.87952 12.3533 9.6903 11.8964C9.50109 11.4396 9.45158 10.937 9.54804 10.452C9.6445 9.96705 9.88261 9.52159 10.2322 9.17196C10.5819 8.82233 11.0273 8.58423 11.5123 8.48776C11.9972 8.3913 12.4999 8.44081 12.9567 8.63003C13.4135 8.81925 13.804 9.13968 14.0787 9.5508C14.3534 9.96193 14.5 10.4453 14.5 10.9397C14.5 11.6028 14.2366 12.2387 13.7678 12.7075C13.2989 13.1763 12.663 13.4397 12 13.4397V13.4397Z" fill="#AC8856"/>
</svg>
