<svg width="662" height="682" viewBox="0 0 662 682" fill="none" xmlns="http://www.w3.org/2000/svg">
<path d="M0 337.997C2.27495 244.399 36.7242 159.901 109.198 91.9772C137.472 65.6528 169.971 44.8533 204.095 26.9787C236.92 10.0791 272.344 2.27923 309.068 0.979263C366.592 -1.29569 421.516 8.45409 472.864 34.7785C569.387 84.1774 629.511 163.151 653.235 268.448C679.56 384.471 642.511 506.993 557.037 589.541C503.414 641.215 439.39 671.439 365.292 679.889C240.17 694.189 118.297 633.415 51.0239 524.218C17.2246 468.644 0.649985 407.87 0 337.997Z" fill="#FDD65B"/>
<mask id="mask0_0_46" style="mask-type:alpha" maskUnits="userSpaceOnUse" x="0" y="0" width="662" height="682">
<path d="M0 337.997C2.27495 244.399 36.7242 159.901 109.198 91.9772C137.472 65.6528 169.971 44.8533 204.095 26.9787C236.92 10.0791 272.344 2.27923 309.068 0.979263C366.592 -1.29569 421.516 8.45409 472.864 34.7785C569.387 84.1774 629.511 163.151 653.235 268.448C679.56 384.471 642.511 506.993 557.037 589.541C503.414 641.215 439.39 671.439 365.292 679.889C240.17 694.189 118.297 633.415 51.0239 524.218C17.2246 468.644 0.649985 407.87 0 337.997Z" fill="black"/>
</mask>
<g mask="url(#mask0_0_46)">
<path d="M31.4628 580.608C29.1879 581.908 27.2379 583.208 24.9629 584.508C15.2132 590.682 5.78837 596.857 -3.96141 603.032C-6.56135 604.657 -9.48628 606.282 -12.4112 606.932C-14.3612 607.257 -17.2861 606.282 -18.5861 604.982C-19.5611 603.357 -19.886 600.107 -18.9111 598.482C-17.2861 595.557 -14.6862 593.282 -12.0862 591.333C1.56347 580.933 15.2132 570.533 29.1878 560.783C90.9365 517.559 153.985 476.285 218.984 437.936C296.007 392.762 373.355 347.588 451.028 303.714C531.627 257.89 615.8 218.566 700.948 181.842C720.122 173.392 739.297 164.617 758.471 156.167C762.371 154.542 765.946 152.592 770.171 151.617C782.521 147.718 791.946 151.617 797.471 162.992C800.396 169.492 802.67 176.642 803.97 183.792C810.795 217.266 812.095 250.74 810.47 284.539C806.245 371.962 776.996 450.611 728.247 522.434C677.223 597.182 610.275 654.381 531.302 697.605C468.903 731.729 402.604 754.804 332.406 765.204C291.782 771.378 251.158 773.003 210.534 765.854C176.735 760.004 145.21 748.629 116.286 730.429C79.2367 707.355 52.9123 674.531 33.7377 636.182C26.2629 621.232 25.2879 605.957 29.8378 590.033C30.4878 587.758 31.1378 585.483 31.4628 583.208C32.1128 581.583 31.7878 581.258 31.4628 580.608Z" fill="#00715D"/>
<mask id="mask1_0_46" style="mask-type:alpha" maskUnits="userSpaceOnUse" x="-20" y="150" width="832" height="621">
<path d="M31.4628 580.608C29.1879 581.908 27.2379 583.208 24.9629 584.508C15.2132 590.682 5.78837 596.857 -3.96141 603.032C-6.56135 604.657 -9.48628 606.282 -12.4112 606.932C-14.3612 607.257 -17.2861 606.282 -18.5861 604.982C-19.5611 603.357 -19.886 600.107 -18.9111 598.482C-17.2861 595.557 -14.6862 593.282 -12.0862 591.333C1.56347 580.933 15.2132 570.533 29.1878 560.783C90.9365 517.559 153.985 476.285 218.984 437.936C296.007 392.762 373.355 347.588 451.028 303.714C531.627 257.89 615.8 218.566 700.948 181.842C720.122 173.392 739.297 164.617 758.471 156.167C762.371 154.542 765.946 152.592 770.171 151.617C782.521 147.718 791.946 151.617 797.471 162.992C800.396 169.492 802.67 176.642 803.97 183.792C810.795 217.266 812.095 250.74 810.47 284.539C806.245 371.962 776.996 450.611 728.247 522.434C677.223 597.182 610.275 654.381 531.302 697.605C468.903 731.729 402.604 754.804 332.406 765.204C291.782 771.378 251.158 773.003 210.534 765.854C176.735 760.004 145.21 748.629 116.286 730.429C79.2367 707.355 52.9123 674.531 33.7377 636.182C26.2629 621.232 25.2879 605.957 29.8378 590.033C30.4878 587.758 31.1378 585.483 31.4628 583.208C32.1128 581.583 31.7878 581.258 31.4628 580.608Z" fill="#4CA96D"/>
</mask>
<g mask="url(#mask1_0_46)">
<path d="M653.885 634.714C654.86 631.464 655.835 627.889 656.485 624.639C659.085 607.089 657.135 589.865 655.51 572.64C651.286 529.416 641.211 487.167 632.111 444.593C625.286 413.393 618.461 382.194 616.836 350.02C615.861 327.595 615.536 304.846 616.186 282.096C617.161 243.097 621.061 204.423 628.211 165.749C632.436 143.65 637.311 121.55 645.436 100.101C649.986 87.7508 655.835 75.7261 664.285 65.3263C669.16 59.1514 675.01 54.2765 682.81 49.4016C682.16 51.0266 682.16 52.0016 681.51 52.3266C666.235 64.6763 657.785 81.5759 651.935 99.7755C644.461 121.875 639.911 144.3 636.661 167.374C627.886 225.223 624.636 283.071 627.236 341.57C628.536 368.22 633.411 394.219 638.936 420.218C646.736 457.918 654.86 495.292 662.01 533.316C666.56 557.69 669.485 582.065 669.16 606.764C669.16 613.264 668.51 619.764 667.535 626.264C666.885 630.164 665.585 634.389 663.635 637.963C659.735 645.438 651.935 647.063 646.086 641.213C641.536 636.988 637.636 631.789 635.036 626.264C628.861 613.264 623.011 599.939 617.486 586.29C602.212 546.965 590.512 506.666 578.812 466.042C561.263 406.244 541.438 347.095 519.338 288.921C515.114 277.872 510.239 267.472 505.039 256.747C503.089 252.847 500.489 248.947 497.889 245.697C493.339 240.497 489.439 240.497 484.889 245.697C481.964 249.272 479.364 253.497 477.739 257.722C472.215 269.747 469.615 283.071 468.315 296.071C464.74 328.57 465.715 361.07 467.34 393.569C470.265 450.118 478.064 506.341 484.889 562.565C489.114 597.014 493.014 631.139 493.664 665.913C493.989 690.612 493.664 715.312 488.464 739.686C487.164 745.536 485.539 751.386 483.264 756.911C476.439 772.835 463.44 775.11 451.74 761.786C446.54 755.936 442.64 749.111 438.74 742.286C430.615 727.336 424.766 711.087 419.891 694.512C408.191 655.513 399.416 616.189 391.941 576.215C380.242 513.166 368.867 450.118 357.817 386.744C353.592 362.695 350.342 338.645 346.442 314.271C345.467 309.071 344.167 303.546 342.217 298.346C341.242 295.421 338.967 292.496 337.668 289.896C332.468 290.546 329.543 293.796 327.593 297.046C323.368 304.196 318.818 311.021 315.243 318.496C303.868 342.87 298.993 368.87 296.393 395.194C291.844 442.643 294.443 489.767 299.318 536.891C303.218 573.29 307.443 609.689 309.718 646.413C311.993 679.888 311.993 713.362 304.518 746.511C302.893 753.011 300.618 759.511 298.018 765.686C296.068 770.236 293.144 774.135 289.569 777.71C282.419 784.86 273.319 785.51 265.844 778.36C260.969 773.485 256.094 767.961 253.169 761.786C246.67 748.136 240.495 733.836 235.295 719.537C221.97 681.512 213.52 641.863 205.72 602.539C197.271 558.99 191.096 515.441 188.821 471.242C186.871 436.468 187.196 401.694 186.221 366.92C186.221 361.72 185.571 356.195 184.921 349.37C180.046 353.27 177.771 357.495 175.496 361.395C165.421 379.919 157.297 399.419 150.472 419.243C131.622 474.492 120.897 531.041 120.572 589.54C120.247 619.114 119.922 648.688 118.947 678.588C118.297 701.662 116.022 724.737 108.223 746.836C106.273 752.686 103.348 758.211 100.423 763.736C99.1229 766.011 96.8479 768.286 94.573 769.91C90.6731 772.51 88.3981 770.885 87.0981 765.036C87.7481 765.361 88.7231 765.361 89.0481 765.686C89.6981 766.011 90.0231 766.661 90.9981 767.311C95.223 764.386 96.8479 760.161 98.7979 755.936C103.998 743.911 106.923 731.236 108.223 718.237C109.848 701.337 111.148 684.112 111.473 666.888C112.123 634.389 111.798 601.889 112.773 569.39C114.073 523.241 123.172 478.067 137.147 433.868C144.947 409.169 154.372 385.444 166.396 362.695C169.646 356.845 173.221 350.995 177.446 345.795C179.721 342.87 182.646 340.595 186.871 341.895C190.771 343.195 192.071 346.445 192.396 350.02C193.371 360.42 194.021 370.819 194.346 381.219C195.321 407.544 194.996 433.868 196.621 459.867C201.821 545.666 216.12 630.164 241.47 712.387C246.02 727.336 252.194 741.636 258.694 755.936C261.294 761.786 265.194 766.986 269.744 771.861C274.619 777.385 279.819 777.06 284.369 771.535C287.619 767.311 291.194 762.436 292.494 757.561C295.743 745.536 298.668 733.511 300.293 721.162C303.218 696.787 303.543 672.413 301.268 648.038C297.368 606.439 292.819 564.84 288.919 523.241C284.694 478.392 283.394 433.543 288.594 388.694C291.519 363.02 297.368 337.995 308.418 314.596C311.343 308.421 314.593 302.571 318.168 297.046C320.118 293.796 322.718 290.546 325.643 287.946C333.768 280.471 342.217 281.446 347.092 291.521C350.017 297.696 352.292 304.521 353.592 311.346C358.142 337.345 362.042 363.02 366.267 389.019C381.217 480.342 395.516 571.665 417.941 661.688C423.141 682.162 429.64 702.637 436.79 722.787C440.365 732.861 446.215 742.286 451.74 751.711C454.015 755.286 457.265 758.536 460.84 761.136C465.715 765.036 469.29 764.061 472.54 758.861C474.489 755.286 476.439 751.386 477.089 747.486C479.364 732.211 481.964 717.262 482.939 701.987C484.889 667.213 481.639 632.764 477.739 598.639C471.565 543.066 464.415 487.817 458.89 432.243C454.665 390.969 453.365 349.695 456.615 308.421C457.915 290.871 460.515 273.647 467.665 257.722C470.265 251.872 473.514 246.022 477.739 241.147C485.864 231.398 496.264 231.723 504.389 241.147C508.614 246.022 512.189 251.547 514.789 257.722C523.888 279.171 532.988 300.946 541.113 322.721C560.288 373.744 574.262 426.718 589.537 479.042C601.887 520.641 614.886 561.915 631.786 602.214C635.361 610.664 639.261 618.789 643.811 626.589C645.761 630.164 649.011 633.414 651.61 636.663C652.26 635.039 653.235 634.714 653.885 634.714Z" fill="white"/>
</g>
</g>
</svg>