<svg width="101" height="101" viewBox="0 0 101 101" fill="none" xmlns="http://www.w3.org/2000/svg">
<path opacity="0.4" d="M67.975 42.4167H33.2249C28.3083 42.4167 26.6 39.125 29.475 35.125L46.85 10.7917C48.8917 7.87502 52.3083 7.87502 54.35 10.7917L71.725 35.125C74.6 39.125 72.8917 42.4167 67.975 42.4167Z" fill="#229521"/>
<path d="M73.8917 75.5H27.3084C20.725 75.5 18.475 71.125 22.35 65.7917L38.975 42.4167H62.225L78.85 65.7917C82.725 71.125 80.475 75.5 73.8917 75.5Z" fill="#229521"/>
<path d="M53.725 75.5V92.1667C53.725 93.875 52.3083 95.2917 50.6 95.2917C48.8916 95.2917 47.475 93.875 47.475 92.1667V75.5H53.725Z" fill="#229521"/>
</svg>
