<svg width="101" height="101" viewBox="0 0 101 101" fill="none" xmlns="http://www.w3.org/2000/svg">
<path d="M63.3 13V50.5C63.3 55.0833 59.55 58.8333 54.9666 58.8333H9.1333V25.5C9.1333 16.2916 16.5916 8.83331 25.8 8.83331H59.1333C61.425 8.83331 63.3 10.7083 63.3 13Z" fill="#229521"/>
<path opacity="0.4" d="M92.4666 58.8333V71.3333C92.4666 78.25 86.8833 83.8333 79.9666 83.8333H75.8C75.8 79.25 72.05 75.5 67.4666 75.5C62.8833 75.5 59.1333 79.25 59.1333 83.8333H42.4666C42.4666 79.25 38.7166 75.5 34.1333 75.5C29.55 75.5 25.8 79.25 25.8 83.8333H21.6333C14.7166 83.8333 9.1333 78.25 9.1333 71.3333V58.8333H54.9666C59.55 58.8333 63.3 55.0833 63.3 50.5V21.3333H70.9666C73.9666 21.3333 76.7166 22.9584 78.2166 25.5417L85.3417 38H79.9666C77.675 38 75.8 39.875 75.8 42.1666V54.6666C75.8 56.9583 77.675 58.8333 79.9666 58.8333H92.4666Z" fill="#229521"/>
<path d="M34.1333 92.1667C38.7356 92.1667 42.4666 88.4357 42.4666 83.8333C42.4666 79.231 38.7356 75.5 34.1333 75.5C29.5309 75.5 25.7999 79.231 25.7999 83.8333C25.7999 88.4357 29.5309 92.1667 34.1333 92.1667Z" fill="#229521"/>
<path d="M67.4666 92.1667C72.069 92.1667 75.8 88.4357 75.8 83.8333C75.8 79.231 72.069 75.5 67.4666 75.5C62.8643 75.5 59.1333 79.231 59.1333 83.8333C59.1333 88.4357 62.8643 92.1667 67.4666 92.1667Z" fill="#229521"/>
<path d="M92.4666 52.7085V58.8333H79.9666C77.6749 58.8333 75.7999 56.9583 75.7999 54.6667V42.1667C75.7999 39.875 77.6749 38 79.9666 38H85.3416L91.3832 48.5832C92.0916 49.8332 92.4666 51.2501 92.4666 52.7085Z" fill="#229521"/>
</svg>
