<svg width="101" height="101" viewBox="0 0 101 101" fill="none" xmlns="http://www.w3.org/2000/svg">
<path opacity="0.4" d="M92.0249 25.5834C92.1083 26.5834 92.0249 27.6251 91.7749 28.6667L77.7333 85.0416C76.7333 89.2499 72.9833 92.1667 68.65 92.1667H13.8999C7.60827 92.1667 3.15 86.0001 4.98334 79.9584L22.525 23.5833C23.7333 19.6666 27.3584 17.0001 31.4417 17.0001H82.6916C86.6916 17.0001 89.9417 19.3751 91.3167 22.7084C91.7333 23.5834 91.9416 24.5834 92.0249 25.5834Z" fill="#229521"/>
<path d="M96.1916 82.25C96.6083 87.625 92.3583 92.1667 86.9833 92.1667H68.65C72.9834 92.1667 76.7333 89.2499 77.7333 85.0416L91.775 28.6667C92.025 27.625 92.1083 26.5834 92.025 25.5834L92.0667 25.5L96.1916 82.25Z" fill="#229521"/>
<path d="M40.7333 30.2084C40.4833 30.2084 40.2333 30.1666 39.9833 30.1249C38.3166 29.7083 37.275 28.0417 37.6917 26.3334L42.0249 8.33336C42.4416 6.66669 44.1083 5.66674 45.8166 6.04174C47.4833 6.45841 48.525 8.12496 48.1083 9.83329L43.775 27.8333C43.4416 29.25 42.1499 30.2084 40.7333 30.2084Z" fill="#229521"/>
<path d="M68.65 30.2499C68.4417 30.2499 68.1917 30.2498 67.9833 30.1665C66.3167 29.7915 65.2334 28.1248 65.5667 26.4581L69.4833 8.37491C69.8583 6.66657 71.525 5.62483 73.1917 5.95817C74.8583 6.33317 75.9416 7.9999 75.6083 9.66656L71.6916 27.7498C71.3999 29.2498 70.1084 30.2499 68.65 30.2499Z" fill="#229521"/>
<path d="M65.8167 53.625H32.4834C30.7751 53.625 29.3584 52.2083 29.3584 50.5C29.3584 48.7917 30.7751 47.375 32.4834 47.375H65.8167C67.5251 47.375 68.9417 48.7917 68.9417 50.5C68.9417 52.2083 67.5251 53.625 65.8167 53.625Z" fill="#229521"/>
<path d="M61.6501 70.2917H28.3168C26.6084 70.2917 25.1918 68.875 25.1918 67.1667C25.1918 65.4584 26.6084 64.0417 28.3168 64.0417H61.6501C63.3584 64.0417 64.7751 65.4584 64.7751 67.1667C64.7751 68.875 63.3584 70.2917 61.6501 70.2917Z" fill="#229521"/>
</svg>
