<svg width="100" height="101" viewBox="0 0 100 101" fill="none" xmlns="http://www.w3.org/2000/svg">
<path opacity="0.8" d="M53.75 11L53.625 11.2917L41.5416 39.3334H29.6666C26.8333 39.3334 24.1666 39.875 21.6666 40.9584L28.9583 23.5417L29.125 23.1667L29.375 22.5C29.5 22.2084 29.5833 21.9584 29.7083 21.75C35.1666 9.12502 41.3333 6.25002 53.75 11Z" fill="#229521"/>
<path d="M76.2083 40.1667C74.3333 39.625 72.375 39.3333 70.3333 39.3333H41.5416L53.625 11.2917L53.75 11C54.3333 11.2083 54.9583 11.5 55.5833 11.7083L64.7916 15.5833C69.9166 17.7083 73.5 19.9167 75.7083 22.5833C76.0833 23.0833 76.4166 23.5417 76.75 24.0833C77.125 24.6667 77.4166 25.25 77.5833 25.875C77.75 26.25 77.875 26.5833 77.9583 26.9583C79.0416 30.5 78.375 34.7917 76.2083 40.1667Z" fill="#229521"/>
<path opacity="0.4" d="M90.6667 59.6666V67.7916C90.6667 68.625 90.625 69.4583 90.5834 70.25C89.7917 84.8333 81.6667 92.1666 66.25 92.1666H33.75C32.7084 92.1666 31.75 92.0833 30.7917 91.9583C17.5417 91.0833 10.4584 84 9.54171 70.75C9.41671 69.75 9.33337 68.7916 9.33337 67.7916V59.6666C9.33337 51.2916 14.4167 44.0833 21.6667 40.9583C24.1667 39.875 26.8334 39.3333 29.6667 39.3333H70.3334C72.375 39.3333 74.3334 39.625 76.2084 40.1666C84.5417 42.7083 90.6667 50.4583 90.6667 59.6666Z" fill="#229521"/>
<path opacity="0.6" d="M28.9584 23.5417L21.6667 40.9584C14.4167 44.0834 9.33337 51.2917 9.33337 59.6667V47.4584C9.33337 35.625 17.75 25.75 28.9584 23.5417Z" fill="#229521"/>
<path opacity="0.6" d="M90.6667 47.4583V59.6667C90.6667 50.4583 84.5417 42.7083 76.2084 40.1667C78.375 34.7917 79.0417 30.5 77.9584 26.9583C77.875 26.5833 77.75 26.25 77.5834 25.875C85.375 29.9167 90.6667 38.125 90.6667 47.4583Z" fill="#229521"/>
</svg>
