<svg width="113" height="39" viewBox="0 0 113 39" fill="none" xmlns="http://www.w3.org/2000/svg">
<path d="M28.1716 13.7089H15.0086V17.7844H24.369C23.9009 23.5271 19.3378 26.0589 15.0671 26.0589C9.56786 26.0589 4.77067 21.4894 4.77067 15.1291C4.77067 8.89239 9.33385 4.07589 15.0671 4.07589C19.5133 4.07589 22.0874 7.03989 22.0874 7.03989L24.7785 4.07589C24.7785 4.07589 21.2683 0.000392988 14.8916 0.000392988C6.75975 -0.061357 0.5 7.16339 0.5 15.0056C0.5 22.6626 6.40874 30.1344 15.1256 30.1344C22.7894 30.1344 28.4056 24.6386 28.4056 16.4259C28.4056 14.6969 28.1716 13.7089 28.1716 13.7089V13.7089Z" fill="#8C98A4"/>
<path fill-rule="evenodd" clip-rule="evenodd" d="M29.6342 20.3161C29.6342 15.1291 33.4953 10.6831 38.8775 10.6831C43.3237 10.6831 48.1209 14.0176 48.1794 20.4396C48.1794 26.1206 44.0842 30.1344 38.9945 30.1344C33.3783 30.1344 29.6342 25.6266 29.6342 20.3161ZM44.0842 20.4396C44.0842 16.8581 41.5686 14.5734 38.936 14.5734C35.9524 14.5734 33.6708 17.0434 33.7293 20.3779C33.7293 23.8359 36.0109 26.3059 38.936 26.3059C41.6271 26.3059 44.0842 24.0211 44.0842 20.4396Z" fill="#8C98A4"/>
<path fill-rule="evenodd" clip-rule="evenodd" d="M49.759 20.3161C49.759 15.1291 53.6201 10.6831 59.0023 10.6831C63.4485 10.6831 68.2457 14.0176 68.3042 20.4396C68.3042 26.1206 64.2091 30.1344 59.1193 30.1344C53.5031 30.1344 49.759 25.6266 49.759 20.3161ZM64.2091 20.4396C64.2091 16.8581 61.6935 14.5734 59.0609 14.5734C56.0772 14.5734 53.7956 17.0434 53.8541 20.3779C53.8541 23.8359 56.1357 26.3059 59.0609 26.3059C61.752 26.3059 64.2091 24.0211 64.2091 20.4396Z" fill="#8C98A4"/>
<path fill-rule="evenodd" clip-rule="evenodd" d="M69.8838 20.4397C69.8838 15.3144 73.7449 10.7449 78.7176 10.7449C80.8822 10.7449 82.5203 11.6094 83.5733 12.9679V11.3007H87.4345V28.7759C87.4345 35.6302 83.6903 38.9029 78.7761 38.9029C74.2715 38.9029 71.7559 36.0007 70.5273 33.2219L74.096 31.6782C74.6225 32.9132 76.0265 35.1362 78.8346 35.1362C81.7598 35.1362 83.6903 33.0984 83.6903 29.7639V27.8497C82.5788 29.1464 81.2332 30.1962 78.6006 30.1962C74.3885 30.1962 69.8838 26.2442 69.8838 20.4397ZM83.9829 20.5014C83.9829 16.7964 81.4673 14.5734 79.0687 14.5734C76.4946 14.5734 73.979 16.7346 73.9205 20.5631C73.9205 24.0829 76.3776 26.3676 79.0102 26.3676C81.5258 26.3676 83.9829 24.3299 83.9829 20.5014Z" fill="#8C98A4"/>
<path fill-rule="evenodd" clip-rule="evenodd" d="M96.1513 20.3779C96.1513 14.5734 100.071 10.6831 104.751 10.6831C108.378 10.6831 111.128 13.2766 112.356 16.2406L113 17.8461L100.656 23.2801C101.417 24.7621 102.587 26.2441 105.161 26.2441C107.442 26.2441 108.846 24.9474 109.665 23.5889L112.883 25.8736C111.479 27.8496 109.022 30.1344 105.161 30.1344C100.539 30.1344 96.1513 26.4911 96.1513 20.3779ZM108.32 16.5494C107.735 15.3761 106.565 14.4499 104.868 14.4499C102.236 14.4499 99.6614 17.3521 100.129 20.1926L108.32 16.5494Z" fill="#8C98A4"/>
<path d="M90.3011 29.5786H94.3377V0.926636H90.3011V29.5786Z" fill="#8C98A4"/>
</svg>
