<svg width="113" height="37" viewBox="0 0 113 37" fill="none" xmlns="http://www.w3.org/2000/svg">
<path fill-rule="evenodd" clip-rule="evenodd" d="M32.1428 24.8323C32.3114 25.2439 32.48 25.7144 32.6485 26.1849C33.1542 27.5375 33.2666 28.8313 33.098 30.1251C32.7047 32.8304 31.019 35.1827 28.5467 36.2413C27.6476 36.653 26.6924 36.8294 25.681 36.8294C25.4 36.8294 25.0629 36.8294 24.7819 36.7706C23.602 36.653 22.422 36.2413 21.242 35.5356C19.8372 34.7123 18.4325 33.4773 16.8592 31.713C15.2859 33.4773 13.9373 34.7123 12.4764 35.5356C11.2964 36.2413 10.1164 36.5942 8.93641 36.7706C8.79597 36.7706 8.6415 36.7853 8.48702 36.8L8.48689 36.8C8.33237 36.8147 8.17784 36.8294 8.03737 36.8294C7.02595 36.8294 6.07072 36.653 5.17169 36.2413C2.75552 35.1827 0.957449 32.8892 0.56412 30.1251C0.395551 28.7725 0.56412 27.4787 1.01364 26.1849C1.18221 25.6556 1.35078 25.2439 1.51935 24.8323C1.8003 24.1854 2.08125 23.5385 2.30601 22.9504L2.3622 22.8916C4.83455 17.3635 7.41928 11.7766 10.1164 6.24846L10.2288 6.01322C10.5097 5.48393 10.7907 4.89584 11.0716 4.30774C11.1472 4.18336 11.2229 4.05681 11.2993 3.92891L11.2994 3.92867C11.6205 3.39147 11.9556 2.83066 12.364 2.30822C13.544 0.896789 15.1173 0.0734558 16.8592 0.0734558C18.5449 0.0734558 20.1744 0.896789 21.2982 2.36703C21.8601 3.01393 22.2534 3.71965 22.5905 4.36655C22.8715 4.95465 23.1524 5.54274 23.4334 6.07203L23.5458 6.30726C26.2991 11.8354 28.8838 17.4223 31.3 22.9504H31.3562C31.5809 23.5385 31.8619 24.1854 32.1428 24.8323ZM59.7882 9.30655C59.7882 10.6592 58.7768 11.7177 57.4845 11.7177C56.1921 11.7177 55.1807 10.6592 55.1807 9.30655C55.1807 7.95393 56.1921 6.89536 57.4845 6.89536C58.833 6.95416 59.7882 8.01274 59.7882 9.30655ZM50.4045 14.1289V14.717C50.4045 14.717 49.3369 13.2468 46.9769 13.2468C43.156 13.2468 40.178 16.3049 40.178 20.5392C40.178 24.7147 43.156 27.8316 46.9769 27.8316C49.3369 27.8316 50.4045 26.3025 50.4045 26.3025V26.9494C50.4045 27.2435 50.6293 27.4787 50.9102 27.4787H53.7759V13.5997H50.9102C50.5731 13.5997 50.4045 13.8349 50.4045 14.1289ZM47.5389 24.4794C48.8312 24.4794 49.8988 23.7737 50.4045 22.9504V18.0104C49.8988 17.2458 48.775 16.4813 47.5389 16.4813C45.2913 16.4813 43.5494 17.9516 43.5494 20.4804C43.5494 23.0092 45.2913 24.4794 47.5389 24.4794ZM55.7987 13.5996H59.1701V27.4199H55.7987V13.5996ZM102.773 14.717C102.773 14.717 103.897 13.2468 106.201 13.2468C110.022 13.2468 113 16.3049 113 20.4804C113 24.6558 110.022 27.7727 106.201 27.7727C103.841 27.7727 102.773 26.2437 102.773 26.2437V26.8906C102.773 27.1846 102.549 27.4199 102.268 27.4199H99.402V6.95416H102.773V14.717ZM105.639 24.4206C104.347 24.4206 103.335 23.7149 102.773 22.8916V17.9516C103.279 17.187 104.403 16.4225 105.639 16.4225C107.887 16.4225 109.629 17.8928 109.629 20.4216C109.629 22.9504 107.887 24.4206 105.639 24.4206ZM97.6602 27.4787V19.2454C97.6602 16.893 97.2106 15.5992 96.0868 14.5994C95.0754 13.7173 93.8392 13.2468 92.3783 13.2468C91.0859 13.2468 89.7936 13.6585 88.7822 14.717V14.1289C88.7822 13.8349 88.5574 13.5997 88.2765 13.5997H85.5793V27.4787H88.9507V17.8339C89.625 17.0106 90.6926 16.4813 91.704 16.4813C93.5583 16.4813 94.2888 17.3635 94.2888 19.657V27.4787H97.6602ZM77.3756 13.2468C75.0718 13.2468 73.948 14.717 73.948 14.717V6.95416H70.5766V27.4199H73.4423C73.7233 27.4199 73.948 27.1846 73.948 26.8906V26.2437C73.948 26.2437 75.0156 27.7727 77.3756 27.7727C81.1965 27.7727 84.1746 24.6558 84.1746 20.4804C84.2308 16.3049 81.2527 13.2468 77.3756 13.2468ZM73.9481 22.8916C74.5099 23.7149 75.5214 24.4206 76.8137 24.4206C79.0613 24.4206 80.8032 22.9504 80.8032 20.4216C80.8032 17.8928 79.0613 16.4225 76.8137 16.4225C75.5776 16.4225 74.4538 17.187 73.9481 17.9516V22.8916ZM67.711 13.2468C68.7224 13.2468 69.2843 13.4232 69.2843 13.4232V16.7166C69.2843 16.7166 66.4748 15.7168 64.7329 17.8339V27.4787H61.3615V13.5997H64.2272C64.5082 13.5997 64.7329 13.8349 64.7329 14.1289V14.717C65.2948 13.9525 66.6434 13.2468 67.711 13.2468ZM16.803 28.0668C14.8925 25.538 13.6563 23.1856 13.263 21.2449C13.0944 20.4216 13.0382 19.657 13.1506 19.0101C13.2068 18.422 13.4316 17.8927 13.7125 17.4811C14.3868 16.4813 15.5106 15.8344 16.803 15.8344C18.0953 15.8344 19.2753 16.4225 19.8934 17.4811C20.1744 17.9516 20.3991 18.422 20.4553 19.0101C20.5677 19.657 20.5115 20.4216 20.3429 21.2449C19.9496 23.1856 18.7134 25.538 16.803 28.0668ZM27.6476 34.1242C29.3895 33.4185 30.6257 31.7718 30.8505 29.8311C30.9628 28.8313 30.8505 27.9492 30.6819 27.0082C30.621 26.8172 30.5437 26.6262 30.4589 26.4165C30.387 26.2388 30.3097 26.0478 30.2324 25.832C30.0919 25.538 29.9655 25.2292 29.839 24.9205C29.7126 24.6117 29.5862 24.303 29.4457 24.0089V23.9501C27.0295 18.4808 24.4448 12.8939 21.7477 7.42465L21.6353 7.18941C21.3544 6.60132 21.0734 6.01322 20.7925 5.48394C20.5115 4.89584 20.1744 4.30774 19.7811 3.83727C19.0506 2.95513 18.0392 2.48465 16.9716 2.48465C15.904 2.48465 14.8925 2.95513 14.1621 3.83727C13.7687 4.36655 13.4316 4.89584 13.1507 5.48394L13.1506 5.48396C12.8697 6.07205 12.5887 6.66013 12.3078 7.18941L12.1954 7.42465C9.44212 12.8939 6.85739 18.4808 4.44123 23.9501L4.38504 24.0089C4.10409 24.597 3.82314 25.2439 3.59838 25.832C3.42981 26.2437 3.26124 26.6554 3.14886 27.0082C2.75553 28.0668 2.69934 28.9489 2.81172 29.8899C3.03648 31.7718 4.27266 33.4185 6.01454 34.183C6.8012 34.477 7.70024 34.6535 8.65547 34.5358C9.5545 34.4182 10.4535 34.1242 11.3526 33.5949C12.5888 32.8304 13.8811 31.713 15.3421 30.0075C13.0383 27.0082 11.5773 24.2442 11.0716 21.833C10.7907 20.7156 10.7345 19.657 10.9031 18.7161C11.0716 17.7751 11.3526 16.9518 11.8583 16.1873C12.9259 14.5994 14.7802 13.5996 16.803 13.5996C18.8258 13.5996 20.6801 14.5406 21.7477 16.1873C22.2534 16.9518 22.5344 17.7751 22.7029 18.7161C22.8153 19.657 22.7591 20.7156 22.5344 21.833C21.9725 24.2442 20.5677 26.9494 18.2639 29.9487C19.7249 31.6542 20.961 32.7716 22.2534 33.5361C23.2086 34.0654 24.0515 34.3594 24.9505 34.477C25.9057 34.5947 26.8048 34.477 27.6476 34.1242Z" fill="#8C98A4"/>
</svg>
