<svg width="113" height="31" viewBox="0 0 113 31" fill="none" xmlns="http://www.w3.org/2000/svg">
<path fill-rule="evenodd" clip-rule="evenodd" d="M16.2807 2.54803C16.2807 3.77138 15.2667 4.81996 14.0836 4.81996C12.9006 4.81996 11.8866 3.77138 11.8866 2.54803C11.8866 1.32468 12.9006 0.276093 14.0836 0.276093C15.2667 0.276093 16.2807 1.32468 16.2807 2.54803ZM14.0836 6.68411C12.7879 6.68411 11.7739 7.7327 11.7739 9.07256C11.7739 10.4124 12.7879 11.461 14.0836 11.461C15.3793 11.461 16.3933 10.4124 16.3933 9.07256C16.3933 7.67444 15.3793 6.68411 14.0836 6.68411ZM11.7176 15.4806C11.7176 14.1407 12.7879 13.0339 14.0836 13.0339C15.3793 13.0339 16.506 14.1407 16.4497 15.4806C16.4497 16.8204 15.3793 17.9273 14.0836 17.9273C12.7879 17.9273 11.7176 16.8204 11.7176 15.4806ZM14.0836 19.5002C12.7879 19.5002 11.7739 20.5487 11.7739 21.8886C11.7739 23.2285 12.7879 24.277 14.0836 24.277C15.3793 24.277 16.3933 23.2285 16.3933 21.8886C16.3933 20.607 15.3793 19.5002 14.0836 19.5002ZM11.8866 28.3549C11.8866 27.1315 12.9006 26.0829 14.0836 26.0829C15.323 26.0829 16.2807 27.1315 16.2807 28.3549C16.2807 29.5782 15.2667 30.6268 14.0836 30.6268C12.9006 30.6268 11.8866 29.5782 11.8866 28.3549ZM20.1678 6.39282C18.7594 6.39282 17.5764 7.61617 17.5764 9.07254C17.5764 10.5289 18.7594 11.7523 20.1678 11.7523C21.5761 11.7523 22.7591 10.5289 22.7591 9.07254C22.7591 7.61617 21.5761 6.39282 20.1678 6.39282ZM17.4637 15.5388C17.4637 13.966 18.7031 12.7426 20.1678 12.7426C21.6325 12.7426 22.8718 13.966 22.8718 15.5388C22.8718 17.1117 21.6325 18.3351 20.1678 18.3351C18.6467 18.3351 17.4637 17.0535 17.4637 15.5388ZM20.1678 19.2089C18.7594 19.2089 17.5764 20.4322 17.5764 21.8886C17.5764 23.3449 18.7594 24.5683 20.1678 24.5683C21.5761 24.5683 22.7591 23.3449 22.7591 21.8886C22.7591 20.4322 21.5761 19.2089 20.1678 19.2089ZM23.4352 15.4806C23.4352 13.7329 24.8435 12.3931 26.4209 12.3931C27.9983 12.3931 29.294 13.7329 29.4066 15.4806C29.4066 17.2282 28.1109 18.5681 26.4209 18.5681C24.7309 18.5681 23.4352 17.1117 23.4352 15.4806ZM7.94318 6.97537C6.87282 6.97537 5.97147 7.90745 5.97147 9.01429C5.97147 10.1211 6.87282 11.0532 7.94318 11.0532C9.01353 11.0532 9.91488 10.1211 9.91488 9.01429C9.91488 7.90745 9.06987 6.97537 7.94318 6.97537ZM5.8588 15.4806C5.8588 14.2572 6.76015 13.3251 7.94318 13.3251C9.1262 13.3251 10.0276 14.2572 10.0276 15.4806C10.0276 16.7039 9.1262 17.636 7.94318 17.636C6.76015 17.636 5.8588 16.7039 5.8588 15.4806ZM7.94318 19.7914C6.87282 19.7914 5.97147 20.7235 5.97147 21.8303C5.97147 22.9372 6.87282 23.8692 7.94318 23.8692C9.01353 23.8692 9.91488 22.9372 9.91488 21.8303C9.91488 20.7235 9.06987 19.7914 7.94318 19.7914ZM0 15.5388C0 14.4902 0.788683 13.6747 1.8027 13.6747C2.81673 13.6747 3.60541 14.4902 3.60541 15.5388C3.60541 16.5874 2.81673 17.403 1.8027 17.403C0.788683 17.403 0 16.5874 0 15.5388Z" fill="#8C98A4"/>
<path d="M51.8278 11.5193C51.6024 11.5193 51.4334 11.7523 51.4334 11.927V28.0636C51.4334 28.2966 51.6587 28.4714 51.8278 28.4714H53.6868C53.9121 28.4714 54.0811 28.2384 54.0811 28.0636V11.927C54.0811 11.694 53.8558 11.5193 53.6868 11.5193H51.8278V11.5193Z" fill="#8C98A4"/>
<path d="M52.8418 4.70346C51.8277 4.70346 51.0391 5.51903 51.0391 6.56761C51.0391 7.6162 51.8277 8.43176 52.8418 8.43176C53.8558 8.43176 54.6445 7.6162 54.6445 6.56761C54.6445 5.51903 53.7995 4.70346 52.8418 4.70346Z" fill="#8C98A4"/>
<path d="M91.8252 11.5193C91.5999 11.5193 91.4309 11.7523 91.4309 11.927V28.0636C91.4309 28.2966 91.6562 28.4714 91.8252 28.4714H93.6843C93.9096 28.4714 94.0786 28.2384 94.0786 28.0636V11.927C94.0786 11.694 93.8533 11.5193 93.6843 11.5193H91.8252V11.5193Z" fill="#8C98A4"/>
<path d="M92.7266 4.70346C91.7126 4.70346 90.9239 5.51903 90.9239 6.56761C90.9239 7.6162 91.7126 8.43176 92.7266 8.43176C93.7406 8.43176 94.5293 7.6162 94.5293 6.56761C94.5293 5.51903 93.7406 4.70346 92.7266 4.70346Z" fill="#8C98A4"/>
<path fill-rule="evenodd" clip-rule="evenodd" d="M111.748 26.7047C111.736 26.7614 111.708 26.8299 111.639 26.8985C111.639 27.015 111.521 27.1315 111.286 27.0733L111.376 27.1823C111.365 27.187 111.354 27.1898 111.345 27.1898H111.169L111.169 27.1898H110.934V27.015V26.4908H111.345C111.463 26.4908 111.58 26.4908 111.639 26.6073C111.708 26.6073 111.736 26.6477 111.748 26.7047ZM110.934 27.1898H110.876V27.7141H110.641V26.2577H111.169H111.404C111.521 26.2577 111.639 26.3742 111.639 26.3742C111.756 26.3742 111.756 26.4907 111.756 26.4907V26.6072C111.756 26.6312 111.756 26.665 111.748 26.7047C111.756 26.7445 111.756 26.7924 111.756 26.8403C111.756 26.9568 111.756 27.0733 111.639 27.0733C111.57 27.0733 111.501 27.1133 111.444 27.1464C111.419 27.1611 111.396 27.1744 111.376 27.1823L111.815 27.7141H111.58L111.169 27.1898H110.934V27.1898Z" fill="#8C98A4"/>
<path fill-rule="evenodd" clip-rule="evenodd" d="M109.909 27.015C109.909 26.316 110.528 25.6752 111.204 25.6752C111.937 25.6752 112.5 26.2577 112.5 27.015C112.5 27.7141 111.88 28.3549 111.204 28.3549C110.528 28.3549 109.909 27.7141 109.909 27.015ZM110.021 27.015C110.021 27.7141 110.528 28.2384 111.204 28.2384C111.824 28.2384 112.387 27.7141 112.387 27.015C112.387 26.316 111.88 25.7917 111.204 25.7917C110.528 25.7917 110.021 26.316 110.021 27.015Z" fill="#8C98A4"/>
<path d="M67.3197 14.1407C67.5451 14.1407 67.7141 13.9077 67.7141 13.7329V11.8105C67.7141 11.5775 67.4887 11.4028 67.3197 11.4028H63.32V5.22776C63.32 4.99474 63.0946 4.81998 62.9256 4.81998H61.0666C60.8413 4.81998 60.6723 5.053 60.6723 5.22776V11.4028H58.7006C58.4752 11.4028 58.3062 11.6358 58.3062 11.8105V13.7329C58.3062 13.966 58.5316 14.1407 58.7006 14.1407H60.6723V23.4615C60.6723 26.316 62.5313 28.1801 65.2354 28.1801H67.2071C67.4324 28.1801 67.6014 27.9471 67.6014 27.7723V25.8499C67.6014 25.6169 67.3761 25.4421 67.2071 25.4421H65.517C64.2213 25.4421 63.32 24.5101 63.32 23.0537V14.0825H67.3197V14.1407V14.1407Z" fill="#8C98A4"/>
<path d="M106.867 14.1407C107.092 14.1407 107.261 13.9077 107.261 13.7329V11.8105C107.261 11.5775 107.036 11.4028 106.867 11.4028H102.867V5.22776C102.867 4.99474 102.641 4.81998 102.472 4.81998H100.613C100.388 4.81998 100.219 5.053 100.219 5.22776V11.4028H98.2474C98.022 11.4028 97.853 11.6358 97.853 11.8105V13.7329C97.853 13.966 98.0784 14.1407 98.2474 14.1407H100.219V23.4615C100.219 26.316 102.078 28.1801 104.782 28.1801H106.754C106.979 28.1801 107.148 27.9471 107.148 27.7723V25.8499C107.148 25.6169 106.923 25.4421 106.754 25.4421H104.951C103.655 25.4421 102.754 24.5101 102.754 23.0537V14.0825H106.81L106.867 14.1407V14.1407Z" fill="#8C98A4"/>
<path d="M39.9975 14.1407V27.8888C39.9975 28.1219 40.2229 28.2966 40.3919 28.2966H42.2509C42.4762 28.2966 42.6452 28.0636 42.6452 27.8888V14.1407H47.0393C47.2647 14.1407 47.4337 13.9077 47.4337 13.7329V11.8105C47.4337 11.5775 47.2083 11.4028 47.0393 11.4028H42.6452V7.79096C42.6452 6.33459 43.6593 5.34426 44.8423 5.34426H47.0393C47.2647 5.34426 47.4337 5.11125 47.4337 4.93648V3.01408C47.4337 2.78106 47.2083 2.60629 47.0393 2.60629H44.955C42.1946 2.60629 39.9975 4.99474 39.9975 7.73271V11.4028H38.0258C37.8005 11.4028 37.6315 11.6358 37.6315 11.8105V13.7329C37.6315 13.966 37.8568 14.1407 38.0258 14.1407H39.9975V14.1407Z" fill="#8C98A4"/>
<path fill-rule="evenodd" clip-rule="evenodd" d="M79.7697 10.8785C81.9667 10.8785 84.0511 11.8105 85.5158 13.4417C86.9805 15.0728 87.7692 17.3447 87.7692 19.8497C87.7692 26.0829 83.6568 28.8792 79.7134 28.8792C75.7136 28.8792 71.6575 26.1412 71.6575 19.8497V2.89756C71.6575 2.7228 71.8265 2.48978 72.0519 2.48978H73.9109C74.0799 2.48978 74.3053 2.66454 74.3053 2.89756V13.1504C75.6009 11.8105 77.6853 10.8785 79.7697 10.8785ZM74.2489 19.9079C74.2489 22.9954 75.7136 26.2577 79.7134 26.2577C83.7131 26.2577 85.1215 22.9954 85.1778 19.9079C85.1778 16.1796 82.9808 13.6164 79.7134 13.6164C76.446 13.6164 74.2489 16.1214 74.2489 19.9079Z" fill="#8C98A4"/>
</svg>
