<svg width="113" height="33" viewBox="0 0 113 33" fill="none" xmlns="http://www.w3.org/2000/svg">
<path fill-rule="evenodd" clip-rule="evenodd" d="M12.2646 30.5559L12.2645 30.5559C11.6144 30.6259 10.9544 30.6969 10.2786 30.7842L4.85693 14.3205V31.4848C3.16265 31.6599 1.6378 31.8934 0 32.1854V0.71756H4.51807L10.6739 18.5824V0.71756H15.4744V30.142C14.4137 30.3247 13.353 30.4388 12.2646 30.5559ZM28.1859 12.2167L28.186 12.2167C29.3082 12.1882 30.4042 12.1604 31.2312 12.1604V17.0645C29.1416 17.0645 26.6566 17.0645 24.8494 17.1812V24.479C25.7295 24.4233 26.6153 24.3616 27.505 24.2998H27.505H27.505H27.505H27.505H27.505C29.4129 24.1671 31.3386 24.0332 33.2643 23.9535V28.6824L20.1054 29.7333V0.71756H33.2643V5.62163H24.8494V12.2772C25.8034 12.2772 27.009 12.2466 28.1859 12.2167ZM45.9714 5.68001H50.8848C50.8848 5.68001 50.8848 0.71756 50.9413 0.71756H36.314V5.68001H41.2274V28.3322C42.7523 28.2738 44.3901 28.2738 45.9714 28.2738V5.68001ZM58.622 11.9269H65.1167V16.8309H58.622V27.9819H53.9345V0.71756H67.2063V5.62163H58.622V11.9269ZM79.8685 23.8963L79.8684 23.8963C78.2352 23.7971 76.5894 23.6971 74.9435 23.6616V0.71756H70.1995V28.2738C74.5482 28.3905 78.7839 28.6241 83.0196 28.916V24.0703C81.9768 24.0244 80.9253 23.9605 79.8685 23.8963ZM87.0294 29.2663C87.5577 29.3067 88.0929 29.3402 88.6325 29.3739C89.6501 29.4375 90.6835 29.5021 91.7169 29.6166V0.71756H87.0294V29.2663ZM106.457 15.6633L112.5 0.71756H107.248L103.916 8.9494L100.809 0.71756H95.7267L101.261 15.4882L95.1619 29.8501C95.8396 29.9435 96.5173 30.0182 97.1951 30.093C98.2116 30.205 99.2282 30.3171 100.245 30.4923L103.746 22.1437L107.135 31.2512C107.768 31.3535 108.394 31.4629 109.018 31.5719C110.175 31.7742 111.326 31.9752 112.5 32.127L106.457 15.6633Z" fill="#8C98A4"/>
</svg>
